<svg fill="none" height="56" viewBox="0 0 180 56" width="180" xmlns="http://www.w3.org/2000/svg"><path d="m0 0h180v56h-180z" fill="#000"/><g fill="#fff"><path d="m89.9754 10.8118h-1.2441v8.765h1.2441z"/><path d="m36.8521 16.0952c1.1362-1.3638 1.6959-3.1169 1.5604-4.8868-1.7358.1823-3.3392 1.0119-4.4906 2.3234-.563.6408-.9942 1.3862-1.269 2.1937-.2747.8074-.3876 1.6611-.3322 2.5123.8682.0089 1.7271-.1793 2.512-.5504s1.4754-.9155 2.0194-1.5922z"/><path d="m40.6764 27.4209c.0151-1.1685.3255-2.3142.9023-3.3305.5768-1.0164 1.4014-1.8703 2.3969-2.4823-.6324-.9033-1.4667-1.6466-2.4367-2.1709-.97-.5244-2.0488-.8154-3.1509-.8499-1.438-.1509-2.8492.4091-4.0025.8669-.7321.2905-1.3604.5399-1.8256.5399-.5292 0-1.1754-.2596-1.8995-.5505-.9469-.3803-2.0269-.8141-3.1524-.7909-1.2847.0415-2.5368.4151-3.6342 1.0844-1.0975.6692-2.0028 1.6114-2.6279 2.7346-2.7076 4.6878-.6879 11.5773 1.9057 15.3665 1.2977 1.8555 2.8143 3.9281 4.7987 3.8546.9002-.0373 1.539-.3061 2.1987-.5838.7635-.3213 1.5551-.6544 2.8125-.6544 1.1856 0 1.9433.3227 2.6703.6325.6971.2969 1.3661.5819 2.3571.559 2.0837-.0338 3.3965-1.8637 4.6487-3.7368.9323-1.3221 1.6498-2.7833 2.1258-4.3295-1.2106-.512-2.2437-1.3691-2.9705-2.4643s-1.1151-2.3801-1.1165-3.6946z"/><path clip-rule="evenodd" d="m58.5964 36.9955h6.6268l1.59 4.699h2.8547l-6.2768-17.3852h-2.9162l-6.2767 17.3852h2.8068zm5.9391-2.1684h-5.2528l2.5909-7.6261h.0725z" fill-rule="evenodd"/><path clip-rule="evenodd" d="m83.2236 35.3576c0 3.9389-2.1082 6.4695-5.2897 6.4695-.8059.0422-1.6074-.1434-2.3127-.5356s-1.2859-.9751-1.6754-1.682h-.0602v6.2782h-2.6017v-16.8684h2.5184v2.1082h.0478c.4074-.7034.9978-1.2833 1.7085-1.6779.7106-.3946 1.515-.5891 2.3275-.5629 3.2169 0 5.3375 2.543 5.3375 6.4709zm-2.6743 0c0-2.5662-1.3261-4.2533-3.3496-4.2533-1.9879 0-3.325 1.7227-3.325 4.2533 0 2.5539 1.3371 4.2643 3.325 4.2643 2.0235 0 3.3496-1.6748 3.3496-4.2643z" fill-rule="evenodd"/><path clip-rule="evenodd" d="m91.8847 41.8272c3.1814 0 5.2896-2.5307 5.2896-6.4696 0-3.9279-2.1205-6.4709-5.3375-6.4709-.8125-.0262-1.6168.1684-2.3275.5629-.7107.3946-1.3011.9745-1.7084 1.6779h-.0479v-2.1082h-2.5183v16.8684h2.6017v-6.2782h.0602c.3894.7069.9701 1.2898 1.6754 1.682s1.5068.5778 2.3127.5357zm-.7342-10.7229c2.0234 0 3.3496 1.6871 3.3496 4.2533 0 2.5895-1.3261 4.2643-3.3496 4.2643-1.9879 0-3.325-1.7104-3.325-4.2643 0-2.5306 1.3371-4.2533 3.325-4.2533z" fill-rule="evenodd"/><path d="m106.395 36.8506c.192 1.724 1.867 2.856 4.156 2.856 2.193 0 3.771-1.132 3.771-2.6865 0-1.3495-.952-2.1575-3.205-2.7112l-2.253-.5428c-3.193-.771-4.675-2.264-4.675-4.6867 0-2.9996 2.614-5.0599 6.326-5.0599 3.674 0 6.192 2.0603 6.277 5.0599h-2.626c-.157-1.7349-1.592-2.7822-3.688-2.7822-2.095 0-3.53 1.0596-3.53 2.6018 0 1.2291.916 1.9523 3.157 2.506l1.916.4703c3.567.8435 5.049 2.2764 5.049 4.8193 0 3.2525-2.591 5.2897-6.712 5.2897-3.855 0-6.458-1.9893-6.627-5.1338z"/><path d="m122.685 29.0193v-2.9996h-2.614v2.9996h-1.843v2.0604h1.843v7.2652c0 2.4582 1 3.422 3.567 3.422.484.0091.968-.0313 1.445-.1203v-2.048c-.284.0351-.57.0552-.856.0602-1.06 0-1.542-.5059-1.542-1.5914v-6.9877h2.41v-2.0604z"/><path clip-rule="evenodd" d="m126.491 35.3576c0-3.9881 2.349-6.4941 6.012-6.4941 3.675 0 6.012 2.506 6.012 6.4941 0 3.999-2.325 6.4942-6.012 6.4942-3.686 0-6.012-2.4952-6.012-6.4942zm9.373 0c0-2.7357-1.253-4.3504-3.361-4.3504-2.109 0-3.361 1.627-3.361 4.3504 0 2.7467 1.252 4.349 3.361 4.349 2.108 0 3.361-1.6023 3.361-4.349z" fill-rule="evenodd"/><path d="m143.142 29.0193h-2.482v12.6752h2.602v-7.5182c-.043-.3758-.004-.7565.115-1.1158.118-.3593.312-.6888.57-.9659.258-.277.572-.4951.922-.6391.35-.1441.726-.2107 1.104-.1954.396-.0115.791.0416 1.169.1573v-2.4336c-.292-.0656-.591-.0982-.891-.0971-.694-.0265-1.376.1867-1.931.6037-.555.4171-.95 1.0125-1.118 1.6863h-.06z"/><path clip-rule="evenodd" d="m159.138 37.9717c-.35 2.3009-2.591 3.88-5.458 3.88-3.687 0-5.976-2.4705-5.976-6.4339 0-3.9758 2.301-6.5543 5.867-6.5543 3.507 0 5.712 2.4089 5.712 6.2521v.8914h-8.952v.1572c-.042.4665.017.9365.171 1.3786.154.4422.401.8465.723 1.1861.323.3395.714.6066 1.147.7834.434.1769.9.2594 1.368.2422.615.0576 1.232-.0848 1.76-.406.527-.3212.937-.8041 1.168-1.3768zm-8.795-3.783h6.337c.023-.4195-.04-.8392-.187-1.2329s-.373-.7528-.665-1.0549-.643-.5406-1.031-.7005c-.389-.1599-.806-.2377-1.226-.2287-.424-.0026-.844.0789-1.236.2395s-.748.3973-1.048.6964c-.301.2991-.538.6547-.7 1.0462s-.245.8112-.244 1.2349z" fill-rule="evenodd"/><path clip-rule="evenodd" d="m60.5592 11.4647c-.5097-.198-1.0571-.2804-1.6025-.2413h-3.0174v8.3536h3.0174c2.4883 0 3.9306-1.5341 3.9306-4.2028.0688-.5425.0163-1.0936-.1536-1.6133-.17-.5198-.4532-.9954-.8292-1.3925-.3761-.3971-.8355-.7057-1.3453-.9037zm-1.7475 6.9309h-1.575v-5.9917h1.575c.3878-.0215.7755.043 1.1355.1889.3599.146.683.3697.9463.6552s.4602.6257.5766.9962c.1163.3706.1493.7622.0965 1.147.0569.3863.027.7804-.0876 1.1537-.1146.3732-.311.7163-.5749 1.0041-.2639.2877-.5886.5131-.9506.6595-.3619.1465-.752.2104-1.1418.1871z" fill-rule="evenodd"/><path clip-rule="evenodd" d="m64.353 16.4221c-.0397-.4143.0077-.8323.1391-1.2272s.3438-.758.6237-1.066c.28-.3079.6212-.554 1.0018-.7224.3805-.1684.7921-.2554 1.2083-.2554s.8278.087 1.2084.2554c.3805.1684.7217.4145 1.0017.7224.2799.308.4923.6711.6237 1.066s.1788.8129.1392 1.2272c.0403.4147-.0065.8333-.1375 1.2288-.1311.3955-.3434.7593-.6234 1.0679-.28.3085-.6214.5551-1.0024.7239-.381.1687-.793.2559-1.2097.2559s-.8287-.0872-1.2097-.2559c-.381-.1688-.7224-.4154-1.0024-.7239-.28-.3086-.4923-.6724-.6234-1.0679-.131-.3955-.1778-.8141-.1374-1.2288zm4.6661 0c0-1.3665-.6138-2.1656-1.6912-2.1656-1.0814 0-1.6897.7991-1.6897 2.1656 0 1.3774.6084 2.1704 1.6897 2.1704 1.0774 0 1.6913-.7985 1.6912-2.1704z" fill-rule="evenodd"/><path d="m76.9119 19.5768h1.2907l1.7308-6.3041h-1.2441l-1.1238 4.8104h-.0985l-1.2961-4.8104h-1.1935l-1.2961 4.8104h-.093l-1.1293-4.8104h-1.2619l1.7377 6.3041h1.2783l1.2975-4.6429h.0984z"/><path d="m81.395 13.2727h1.1976v1.0015h.093c.1577-.3597.4237-.6612.7609-.8625.3372-.2014.7289-.2925 1.1203-.2606.3068-.0231.6148.0231.9012.1353.2864.1121.544.2873.7535.5124.2096.2252.3658.4947.4571.7884.0913.2938.1153.6043.0703.9086v4.081h-1.2442v-3.7686c0-1.0131-.4402-1.5169-1.3603-1.5169-.2083-.0097-.4162.0257-.6095.1039s-.3674.1972-.5103.3489c-.143.1518-.2515.3326-.318.5302s-.0896.4072-.0675.6146v3.6879h-1.2442z"/><path clip-rule="evenodd" d="m91.7049 16.4221c-.0396-.4143.0078-.8324.1392-1.2273s.3439-.758.6239-1.066c.2799-.3079.6212-.554 1.0018-.7224s.7922-.2554 1.2084-.2554.8278.087 1.2084.2554.7219.4145 1.0018.7224c.28.308.4924.6711.6239 1.066.1314.3949.1788.813.1392 1.2273.0403.4147-.0065.8333-.1376 1.2288s-.3435.7593-.6235 1.0679c-.28.3085-.6215.5551-1.0025.7238-.3809.1688-.793.256-1.2097.256s-.8288-.0872-1.2098-.256c-.3809-.1687-.7224-.4153-1.0024-.7238-.2801-.3086-.4924-.6724-.6235-1.0679s-.1779-.8141-.1376-1.2288zm4.6662 0c0-1.3665-.6139-2.1656-1.6912-2.1656-1.0814 0-1.6898.7991-1.6898 2.1656 0 1.3774.6084 2.1704 1.6898 2.1704 1.0773 0 1.6912-.7985 1.6912-2.1704z" fill-rule="evenodd"/><path clip-rule="evenodd" d="m101.306 15.9121c-1.4998.093-2.3447.7472-2.3447 1.8819.001.2661.0578.529.1667.7718.1088.2428.2674.4601.4653.6378.198.1778.4307.3121.6837.3942.253.0822.521.1105.786.0829.375.0174.747-.0651 1.08-.239s.613-.433.813-.7508h.099v.886h1.197v-4.3074c0-1.3316-.891-2.1184-2.472-2.1184-1.43 0-2.4482.6945-2.5754 1.7773h1.2044c.138-.4457.619-.7007 1.314-.7007.85 0 1.291.376 1.291 1.0418v.5442zm1.708.8162v.5271c-.014.1988-.067.3929-.157.5708-.09.1778-.215.3357-.367.4643-.153.1286-.329.2252-.52.2841-.19.0589-.39.079-.589.0589-.677 0-1.169-.3302-1.169-.8976 0-.5557.394-.851 1.262-.9091z" fill-rule="evenodd"/><path clip-rule="evenodd" d="m105.887 16.4221c0-1.992 1.024-3.2539 2.617-3.2539.394-.0182.785.0762 1.128.272.342.1959.621.4851.805.834h.093v-3.4624h1.245v8.765h-1.193v-.996h-.098c-.198.3465-.488.6322-.837.826-.348.1939-.744.2886-1.143.2739-1.603.0001-2.617-1.2618-2.617-3.2586zm1.286 0c0 1.3371.63 2.1417 1.684 2.1417 1.049 0 1.697-.8162 1.697-2.1363 0-1.3138-.655-2.1417-1.697-2.1417-1.047 0-1.684.8101-1.684 2.1363z" fill-rule="evenodd"/><path clip-rule="evenodd" d="m117.061 15.1949c-.131.3949-.179.8129-.139 1.2272-.04.4147.006.8333.137 1.2288.132.3955.344.7593.624 1.0679.28.3085.621.5551 1.002.7239.381.1687.793.2559 1.21.2559s.829-.0872 1.21-.2559c.381-.1688.722-.4154 1.002-.7239.28-.3086.492-.6724.623-1.0679s.178-.8141.138-1.2288c.04-.4143-.008-.8323-.139-1.2272-.132-.3949-.344-.758-.624-1.066-.28-.3079-.621-.554-1.002-.7224-.38-.1684-.792-.2554-1.208-.2554s-.828.087-1.208.2554c-.381.1684-.722.4145-1.002.7224-.28.308-.492.6711-.624 1.066zm2.836-.9384c1.077 0 1.691.7991 1.691 2.1656 0 1.3719-.614 2.1704-1.691 2.1704-1.081 0-1.69-.793-1.69-2.1704 0-1.3665.609-2.1656 1.69-2.1656z" fill-rule="evenodd"/><path d="m124.537 13.2727h1.198v1.0015h.093c.158-.3597.424-.6612.761-.8625.337-.2014.729-.2925 1.12-.2606.307-.0231.615.0231.901.1353.287.1121.544.2873.754.5124.209.2252.366.4947.457.7884.091.2938.115.6043.07.9086v4.081h-1.244v-3.7686c0-1.0131-.44-1.5169-1.36-1.5169-.209-.0097-.417.0257-.61.1039s-.367.1972-.51.3489c-.143.1518-.252.3326-.318.5302-.067.1976-.09.4072-.068.6146v3.6879h-1.244z"/><path d="m136.921 13.3015v-1.5983h-1.245v1.5982h-1.001v1.048h1.001v3.5602c0 1.2154.551 1.7021 1.934 1.7021.227-.0023.454-.0236.677-.0636v-1.0363c-.157.0186-.316.0282-.474.0287-.62 0-.892-.2891-.892-.9495v-3.2416h1.366v-1.0479z"/><path d="m139.986 10.8118h1.234v3.474h.098c.165-.363.439-.6662.783-.8683s.742-.2932 1.139-.261c.305-.0166.61.0344.894.1492.283.1149.537.2908.745.5153.207.2245.362.492.454.7833.092.2914.119.5995.078.9024v4.0701h-1.245v-3.7632c0-1.0069-.469-1.5169-1.348-1.5169-.214-.0175-.429.0119-.63.0862-.202.0743-.384.1916-.535.3438-.152.1523-.268.3357-.341.5375-.072.2018-.1.4171-.081.6308v3.6818h-1.245z"/><path clip-rule="evenodd" d="m151.631 19.2826c.499-.3334.866-.8317 1.035-1.4079h-1.198c-.146.2617-.366.4742-.634.6103-.267.1361-.568.1896-.866.1539-.232.0026-.462-.0434-.675-.1349-.214-.0916-.406-.2267-.564-.3967-.158-.1701-.278-.3713-.354-.5907-.076-.2195-.105-.4523-.086-.6837v-.0697h4.452v-.4341c0-1.9796-1.058-3.178-2.812-3.178-.417-.0036-.829.0824-1.21.2521-.38.1697-.72.4191-.995.7314-.276.3123-.481.6802-.602 1.0787-.121.3986-.155.8185-.1 1.2313-.057.4116-.023.8306.098 1.228.121.3973.328.7635.605 1.0731s.618.5552 1 .7197c.381.1645.794.2441 1.209.2331.597.0648 1.198-.0824 1.697-.4159zm-.157-3.4395h-3.185c-.002-.2152.038-.4288.119-.6281.081-.1994.201-.3805.353-.5327s.333-.2724.533-.3535c.199-.0811.413-.1215.628-.1188.212-.0049.423.0347.619.1161.195.0815.372.203.518.3568s.259.3365.33.5363.1.4123.085.6239z" fill-rule="evenodd"/></g></svg>
