<svg width="24" height="24" viewBox="0 0 24 24" fill="none" xmlns="http://www.w3.org/2000/svg">
<path d="M11 9C11 10.1046 10.1046 11 9 11C7.89543 11 7 10.1046 7 9C7 7.89543 7.89543 7 9 7C10.1046 7 11 7.89543 11 9Z" fill="black"/>
<path d="M10 4C10 4.55228 9.55228 5 9 5C8.44772 5 8 4.55228 8 4C8 3.44772 8.44772 3 9 3C9.55228 3 10 3.44772 10 4Z" fill="black"/>
<path d="M16 4C16 4.55228 15.5523 5 15 5C14.4477 5 14 4.55228 14 4C14 3.44772 14.4477 3 15 3C15.5523 3 16 3.44772 16 4Z" fill="black"/>
<path d="M21 9C21 9.55228 20.5523 10 20 10C19.4477 10 19 9.55228 19 9C19 8.44772 19.4477 8 20 8C20.5523 8 21 8.44772 21 9Z" fill="black"/>
<path d="M21 15C21 15.5523 20.5523 16 20 16C19.4477 16 19 15.5523 19 15C19 14.4477 19.4477 14 20 14C20.5523 14 21 14.4477 21 15Z" fill="black"/>
<path d="M16 20C16 20.5523 15.5523 21 15 21C14.4477 21 14 20.5523 14 20C14 19.4477 14.4477 19 15 19C15.5523 19 16 19.4477 16 20Z" fill="black"/>
<path d="M10 20C10 20.5523 9.55228 21 9 21C8.44772 21 8 20.5523 8 20C8 19.4477 8.44772 19 9 19C9.55228 19 10 19.4477 10 20Z" fill="black"/>
<path d="M5 15C5 15.5523 4.55228 16 4 16C3.44772 16 3 15.5523 3 15C3 14.4477 3.44772 14 4 14C4.55228 14 5 14.4477 5 15Z" fill="black"/>
<path d="M5 9C5 9.55228 4.55228 10 4 10C3.44772 10 3 9.55228 3 9C3 8.44772 3.44772 8 4 8C4.55228 8 5 8.44772 5 9Z" fill="black"/>
<path d="M17 9C17 10.1046 16.1046 11 15 11C13.8954 11 13 10.1046 13 9C13 7.89543 13.8954 7 15 7C16.1046 7 17 7.89543 17 9Z" fill="black"/>
<path d="M17 15C17 16.1046 16.1046 17 15 17C13.8954 17 13 16.1046 13 15C13 13.8954 13.8954 13 15 13C16.1046 13 17 13.8954 17 15Z" fill="black"/>
<path d="M11 15C11 16.1046 10.1046 17 9 17C7.89543 17 7 16.1046 7 15C7 13.8954 7.89543 13 9 13C10.1046 13 11 13.8954 11 15Z" fill="black"/>
</svg>
