<svg width="24" height="24" viewBox="0 0 24 24" fill="none" xmlns="http://www.w3.org/2000/svg">
<path fill-rule="evenodd" clip-rule="evenodd" d="M12.5547 1.16795C12.2188 0.944017 11.7812 0.944017 11.4453 1.16795L2.4453 7.16795C2.1671 7.35342 2 7.66565 2 8C2 8.33435 2.1671 8.64658 2.4453 8.83205L5.69723 11L2.4453 13.168C2.1671 13.3534 2 13.6657 2 14C2 14.3344 2.1671 14.6466 2.4453 14.8321L11.4453 20.8321C11.7812 21.056 12.2188 21.056 12.5547 20.8321L21.5547 14.8321C21.8329 14.6466 22 14.3344 22 14C22 13.6657 21.8329 13.3534 21.5547 13.168L18.3028 11L21.5547 8.83205C21.8329 8.64658 22 8.33435 22 8C22 7.66565 21.8329 7.35342 21.5547 7.16795L12.5547 1.16795ZM16.5 12.2019L12.5547 14.8321C12.2549 15.0319 11.874 15.0534 11.5567 14.8964L8.85208 16.6995L9.95069 17.4319L17.1479 12.6338L16.5 12.2019ZM12 18.7982L10.8521 18.0329L18.0493 13.2347L19.1972 14L12 18.7982ZM7.95069 16.0986L10.6479 14.3005L9.54931 13.5681L6.85208 15.3662L7.95069 16.0986ZM7.5 12.2019L8.64792 12.9671L5.95069 14.7653L4.80278 14L7.5 12.2019ZM12 12.7982L4.80278 8L12 3.20185L19.1972 8L12 12.7982Z" fill="black"/>
<path d="M4.24362 17.1763C4.16626 16.9412 3.83374 16.9412 3.75638 17.1763L3.40592 18.2422C3.38028 18.3196 3.31959 18.3803 3.24223 18.4059L2.1763 18.7564C1.94123 18.8337 1.94123 19.1663 2.1763 19.2436L3.24223 19.5941C3.31959 19.6197 3.38028 19.6804 3.40592 19.7578L3.75638 20.8237C3.83374 21.0588 4.16626 21.0588 4.24362 20.8237L4.59408 19.7578C4.61972 19.6804 4.68042 19.6197 4.75777 19.5941L5.8237 19.2436C6.05877 19.1663 6.05877 18.8337 5.8237 18.7564L4.75777 18.4059C4.68042 18.3803 4.61972 18.3196 4.59408 18.2422L4.24362 17.1763Z" fill="black"/>
<path d="M15.3173 20.1322C15.3753 19.9559 15.6247 19.9559 15.6827 20.1322L15.9456 20.9317C15.9648 20.9897 16.0103 21.0352 16.0683 21.0544L16.8678 21.3173C17.0441 21.3753 17.0441 21.6247 16.8678 21.6827L16.0683 21.9456C16.0103 21.9648 15.9648 22.0103 15.9456 22.0683L15.6827 22.8678C15.6247 23.0441 15.3753 23.0441 15.3173 22.8678L15.0544 22.0683C15.0352 22.0103 14.9897 21.9648 14.9317 21.9456L14.1322 21.6827C13.9559 21.6247 13.9559 21.3753 14.1322 21.3173L14.9317 21.0544C14.9897 21.0352 15.0352 20.9897 15.0544 20.9317L15.3173 20.1322Z" fill="black"/>
<path d="M21.2436 17.1763C21.1663 16.9412 20.8337 16.9412 20.7564 17.1763L20.4059 18.2422C20.3803 18.3196 20.3196 18.3803 20.2422 18.4059L19.1763 18.7564C18.9412 18.8337 18.9412 19.1663 19.1763 19.2436L20.2422 19.5941C20.3196 19.6197 20.3803 19.6804 20.4059 19.7578L20.7564 20.8237C20.8337 21.0588 21.1663 21.0588 21.2436 20.8237L21.5941 19.7578C21.6197 19.6804 21.6804 19.6197 21.7578 19.5941L22.8237 19.2436C23.0588 19.1663 23.0588 18.8337 22.8237 18.7564L21.7578 18.4059C21.6804 18.3803 21.6197 18.3196 21.5941 18.2422L21.2436 17.1763Z" fill="black"/>
</svg>
