<svg width="24" height="24" viewBox="0 0 24 24" fill="none" xmlns="http://www.w3.org/2000/svg">
<path fill-rule="evenodd" clip-rule="evenodd" d="M2 5C2 3.34315 3.34315 2 5 2H16C17.6569 2 19 3.34315 19 5V10.2929L20.1464 9.14645C20.3417 8.95118 20.6583 8.95118 20.8536 9.14645C21.0488 9.34171 21.0488 9.65829 20.8536 9.85355L19 11.7071V14.2929L22.1464 11.1464C22.3417 10.9512 22.6583 10.9512 22.8536 11.1464C23.0488 11.3417 23.0488 11.6583 22.8536 11.8536L19 15.7071V16C19 17.6569 17.6569 19 16 19H15.7071L11.8536 22.8536C11.6583 23.0488 11.3417 23.0488 11.1464 22.8536C10.9512 22.6583 10.9512 22.3417 11.1464 22.1464L14.2929 19H11.7071L9.85355 20.8536C9.65829 21.0488 9.34171 21.0488 9.14645 20.8536C8.95118 20.6583 8.95118 20.3417 9.14645 20.1464L10.2929 19H5C3.34315 19 2 17.6569 2 16V5ZM5 4H16C16.5523 4 17 4.44772 17 5V16C17 16.5523 16.5523 17 16 17H5C4.44772 17 4 16.5523 4 16V5C4 4.44772 4.44772 4 5 4Z" fill="black"/>
<path d="M22.8536 15.1464C23.0488 15.3417 23.0488 15.6583 22.8536 15.8536L15.8536 22.8536C15.6583 23.0488 15.3417 23.0488 15.1464 22.8536C14.9512 22.6583 14.9512 22.3417 15.1464 22.1464L22.1464 15.1464C22.3417 14.9512 22.6583 14.9512 22.8536 15.1464Z" fill="black"/>
<path d="M22.8536 19.8536C23.0488 19.6583 23.0488 19.3417 22.8536 19.1464C22.6583 18.9512 22.3417 18.9512 22.1464 19.1464L19.1464 22.1464C18.9512 22.3417 18.9512 22.6583 19.1464 22.8536C19.3417 23.0488 19.6583 23.0488 19.8536 22.8536L22.8536 19.8536Z" fill="black"/>
</svg>
