<svg fill="none" height="56" viewBox="0 0 180 56" width="180" xmlns="http://www.w3.org/2000/svg"><path d="m0 0h180v56h-180z" fill="#000"/><path d="m27.6 26.8667-14.1333 15.0666c.4 1.6 1.8666 2.8 3.7333 2.8.6667 0 1.3333-.1333 2-.5333l16-9.2z" fill="#ea4335"/><path d="m42 24.3333-6.9333-4-7.7334 6.9334 7.7334 7.7333 6.8-4c1.2-.6667 2-1.8667 2-3.3333.1333-1.4667-.6667-2.6667-1.8667-3.3334z" fill="#fbbc04"/><path d="m13.4667 13.4c-.1334.2667-.1334.6667-.1334.9333v26.6667c0 .4 0 .6667.1334.9333l14.6666-14.6666z" fill="#4285f4"/><path d="m27.7333 27.6667 7.3334-7.3334-16-9.2c-.5334-.4-1.2-.5333-2-.5333-1.7334 0-3.3334 1.2-3.7334 2.8z" fill="#34a853"/><g fill="#fff"><path d="m63.2 14.6c0 1.0667-.2667 2-.9333 2.6667-.8.8-1.7334 1.2-2.9334 1.2s-2.1333-.4-2.9333-1.2-1.2-1.7334-1.2-2.9334.4-2.1333 1.2-2.9333 1.7333-1.2 2.9333-1.2c.5334 0 1.2.1333 1.6.2667.5334.2666.9334.5333 1.3334.9333l-.8.8c-.2667-.2667-.5334-.5333-.9334-.6667-.4-.1333-.8-.2666-1.2-.2666-.9333 0-1.6.2666-2.2666.9333-.5334.6667-.9334 1.3333-.9334 2.2667 0 .9333.2667 1.7333.9334 2.2666.6666.6667 1.3333.9334 2.2666.9334.8 0 1.4667-.2667 2-.6667.5334-.4.8-1.0667.9334-1.8667h-2.9334v-.9333h3.8667z"/><path d="m69.3333 10.3333v.9334h-3.6v2.5333h3.3334v.9333h-3.3334v2.5334h3.6v1.0666h-4.6666v-8z"/><path d="m73.7333 11.2667v7.0666h-1.0666v-7.0666h-2.2667v-.9334h5.6v.9334z"/><path d="m80.9333 18.3333h-1.0666v-8h1.0666z"/><path d="m85.4667 11.2667v7.0666h-1.0667v-7.0666h-2.2667v-.9334h5.4667v.9334z"/><path d="m99.3333 14.3333c0 1.2-.4 2.1334-1.2 2.9334s-1.7333 1.2-2.9333 1.2-2.1333-.4-2.9333-1.2-1.2-1.7334-1.2-2.9334.4-2.1333 1.2-2.9333 1.7333-1.2 2.9333-1.2 2.1333.4 2.9333 1.2 1.2 1.7333 1.2 2.9333zm-7.2 0c0 .9334.2667 1.7334.9334 2.2667.5333.6667 1.3333.9333 2.1333.9333.9333 0 1.6-.2666 2.1333-.9333.5334-.5333.9334-1.3333.9334-2.2667 0-.9333-.2667-1.7333-.9334-2.2666-.5333-.6667-1.3333-.9334-2.1333-.9334-.9333 0-1.6.2667-2.1333.9334-.6667.5333-.9334 1.3333-.9334 2.2666z"/><path d="m101.733 18.3333h-1.066v-8h1.2l3.866 6.2667v-6.2667h1.067v8h-1.067l-4.133-6.5333v6.5333z"/><path d="m90.8 30.0667c-3.2 0-5.7333 2.4-5.7333 5.7333 0 3.2 2.5333 5.7333 5.7333 5.7333s5.7333-2.4 5.7333-5.7333c0-3.4667-2.5333-5.7333-5.7333-5.7333zm0 9.0666c-1.7333 0-3.2-1.4666-3.2-3.4666s1.4667-3.4667 3.2-3.4667 3.2 1.3333 3.2 3.4667c0 2-1.4667 3.4666-3.2 3.4666zm-12.4-9.0666c-3.2 0-5.7333 2.4-5.7333 5.7333 0 3.2 2.5333 5.7333 5.7333 5.7333s5.7333-2.4 5.7333-5.7333c0-3.4667-2.5333-5.7333-5.7333-5.7333zm0 9.0666c-1.7333 0-3.2-1.4666-3.2-3.4666s1.4667-3.4667 3.2-3.4667 3.2 1.3333 3.2 3.4667c0 2-1.4667 3.4666-3.2 3.4666zm-14.8-7.3333v2.4h5.7333c-.1333 1.3333-.6666 2.4-1.3333 3.0667-.8.8-2.1333 1.7333-4.4 1.7333-3.6 0-6.2667-2.8-6.2667-6.4s2.8-6.4 6.2667-6.4c1.8667 0 3.3333.8 4.4 1.7333l1.7333-1.7333c-1.4666-1.3333-3.3333-2.4-6-2.4-4.8 0-8.9333 4-8.9333 8.8s4.1333 8.8 8.9333 8.8c2.6667 0 4.5334-.8 6.1334-2.5333 1.6-1.6 2.1333-3.8667 2.1333-5.6 0-.5334 0-1.0667-.1333-1.4667zm60.533 1.8667c-.533-1.3334-1.866-3.6-4.8-3.6-2.933 0-5.333 2.2666-5.333 5.7333 0 3.2 2.4 5.7333 5.6 5.7333 2.533 0 4.133-1.6 4.667-2.5333l-1.867-1.3333c-.667.9333-1.467 1.6-2.8 1.6s-2.133-.5334-2.8-1.7334l7.6-3.2zm-7.733 1.8666c0-2.1333 1.733-3.3333 2.933-3.3333.934 0 1.867.5333 2.134 1.2zm-6.267 5.4667h2.534v-16.6667h-2.534zm-4-9.7333c-.666-.6667-1.733-1.3334-3.066-1.3334-2.8 0-5.467 2.5334-5.467 5.7334s2.533 5.6 5.467 5.6c1.333 0 2.4-.6667 2.933-1.3334h.133v.8c0 2.1334-1.2 3.3334-3.066 3.3334-1.467 0-2.534-1.0667-2.8-2l-2.1337.9333c.6667 1.4667 2.2667 3.3333 5.0667 3.3333 2.933 0 5.333-1.7333 5.333-5.8666v-10.1334h-2.4zm-2.933 7.8666c-1.733 0-3.2-1.4666-3.2-3.4666s1.467-3.4667 3.2-3.4667 3.067 1.4667 3.067 3.4667-1.334 3.4666-3.067 3.4666zm32.533-14.8h-6v16.6667h2.534v-6.2667h3.466c2.8 0 5.467-2 5.467-5.2s-2.667-5.2-5.467-5.2zm.134 8h-3.6v-5.7333h3.6c1.866 0 2.933 1.6 2.933 2.8-.133 1.4667-1.2 2.9333-2.933 2.9333zm15.333-2.4c-1.867 0-3.733.8-4.4 2.5334l2.267.9333c.533-.9333 1.333-1.2 2.266-1.2 1.334 0 2.534.8 2.667 2.1333v.1334c-.4-.2667-1.467-.6667-2.533-.6667-2.4 0-4.8 1.3333-4.8 3.7333 0 2.2667 2 3.7334 4.133 3.7334 1.733 0 2.533-.8 3.2-1.6h.133v1.3333h2.4v-6.4c-.266-2.9333-2.533-4.6667-5.333-4.6667zm-.267 9.2c-.8 0-2-.4-2-1.4666 0-1.3334 1.467-1.7334 2.667-1.7334 1.067 0 1.6.2667 2.267.5334-.267 1.6-1.6 2.6666-2.934 2.6666zm14-8.8-2.8 7.2h-.133l-2.933-7.2h-2.667l4.4 10.1334-2.533 5.6h2.533l6.8-15.7334zm-22.4 10.6667h2.534v-16.6667h-2.534z"/></g></svg>
