<svg width="24" height="24" viewBox="0 0 24 24" fill="none" xmlns="http://www.w3.org/2000/svg">
<path fill-rule="evenodd" clip-rule="evenodd" d="M7.52513 20.9749C8.20901 21.6588 9.10549 22.0005 10.0018 22H21C21.2761 22 21.5 21.7761 21.5 21.5C21.5 21.2239 21.2761 21 21 21H12.4495L12.4749 20.9749L20.9749 12.4749C22.3417 11.108 22.3417 8.89196 20.9749 7.52513L16.4749 3.02513C15.108 1.65829 12.892 1.65829 11.5251 3.02513L3.02513 11.5251C1.65829 12.892 1.65829 15.108 3.02513 16.4749L7.52513 20.9749ZM8.93934 19.5607C9.52513 20.1464 10.4749 20.1464 11.0607 19.5607L13.4571 17.1642L6.83579 10.5429L4.43934 12.9393C3.85355 13.5251 3.85355 14.4749 4.43934 15.0607L8.93934 19.5607ZM7.54289 9.83579L12.9393 4.43934C13.5251 3.85355 14.4749 3.85355 15.0607 4.43934L19.5607 8.93934C20.1464 9.52513 20.1464 10.4749 19.5607 11.0607L14.1642 16.4571L7.54289 9.83579Z" fill="black"/>
<path d="M4.80452 3.22038C4.70782 2.92654 4.29218 2.92654 4.19548 3.22038L3.7574 4.55278C3.72535 4.64948 3.64948 4.72534 3.55278 4.7574L2.22038 5.19548C1.92654 5.29218 1.92654 5.70782 2.22038 5.80452L3.55278 6.2426C3.64948 6.27466 3.72535 6.35052 3.7574 6.44722L4.19548 7.77962C4.29218 8.07346 4.70782 8.07346 4.80452 7.77962L5.2426 6.44722C5.27466 6.35052 5.35052 6.27466 5.44722 6.2426L6.77962 5.80452C7.07346 5.70782 7.07346 5.29218 6.77962 5.19548L5.44722 4.7574C5.35052 4.72534 5.27466 4.64948 5.2426 4.55278L4.80452 3.22038Z" fill="black"/>
<path d="M18.7564 16.1763C18.8337 15.9412 19.1663 15.9412 19.2436 16.1763L19.5941 17.2422C19.6197 17.3196 19.6804 17.3803 19.7578 17.4059L20.8237 17.7564C21.0588 17.8337 21.0588 18.1663 20.8237 18.2436L19.7578 18.5941C19.6804 18.6197 19.6197 18.6804 19.5941 18.7578L19.2436 19.8237C19.1663 20.0588 18.8337 20.0588 18.7564 19.8237L18.4059 18.7578C18.3803 18.6804 18.3196 18.6197 18.2422 18.5941L17.1763 18.2436C16.9412 18.1663 16.9412 17.8337 17.1763 17.7564L18.2422 17.4059C18.3196 17.3803 18.3803 17.3196 18.4059 17.2422L18.7564 16.1763Z" fill="black"/>
<path d="M3.68271 19.1322C3.62469 18.9559 3.37531 18.9559 3.31729 19.1322L3.05444 19.9317C3.03521 19.9897 2.98969 20.0352 2.93167 20.0544L2.13223 20.3173C1.95592 20.3753 1.95592 20.6247 2.13223 20.6827L2.93167 20.9456C2.98969 20.9648 3.03521 21.0103 3.05444 21.0683L3.31729 21.8678C3.37531 22.0441 3.62469 22.0441 3.68271 21.8678L3.94556 21.0683C3.96479 21.0103 4.01031 20.9648 4.06833 20.9456L4.86777 20.6827C5.04408 20.6247 5.04408 20.3753 4.86777 20.3173L4.06833 20.0544C4.01031 20.0352 3.96479 19.9897 3.94556 19.9317L3.68271 19.1322Z" fill="black"/>
</svg>
