<svg width="24" height="24" viewBox="0 0 24 24" fill="none" xmlns="http://www.w3.org/2000/svg">
<path d="M14 2C13.4477 2 13 2.44772 13 3V5C13 5.55228 13.4477 6 14 6C14.5523 6 15 5.55228 15 5V4H17V9H16C15.4477 9 15 9.44771 15 10C15 10.5523 15.4477 11 16 11H20C20.5523 11 21 10.5523 21 10C21 9.44771 20.5523 9 20 9H19V4H21V5C21 5.55228 21.4477 6 22 6C22.5523 6 23 5.55228 23 5V3C23 2.44772 22.5523 2 22 2H14Z" fill="black"/>
<path d="M11 3H6C5.20435 3 4.44129 3.31607 3.87868 3.87868C3.31607 4.44129 3 5.20435 3 6V18C3 18.7957 3.31607 19.5587 3.87868 20.1213C4.44129 20.6839 5.20435 21 6 21H18C18.7957 21 19.5587 20.6839 20.1213 20.1213C20.6839 19.5587 21 18.7957 21 18V13C21 12.4477 20.5523 12 20 12C19.4477 12 19 12.4477 19 13V18C19 18.2652 18.8946 18.5196 18.7071 18.7071C18.5196 18.8946 18.2652 19 18 19H6C5.73478 19 5.48043 18.8946 5.29289 18.7071C5.10536 18.5196 5 18.2652 5 18V16.4142L9.29311 12.1211C9.48062 11.9337 9.73489 11.8284 10 11.8284C10.2651 11.8284 10.5195 11.9338 10.707 12.1212L15.2929 16.7071C15.6834 17.0976 16.3166 17.0976 16.7071 16.7071C17.0976 16.3166 17.0976 15.6834 16.7071 15.2929L12.1211 10.7069C11.5585 10.1445 10.7955 9.82843 10 9.82843C9.20451 9.82843 8.44158 10.1444 7.879 10.7068L5 13.5858V6C5 5.73478 5.10536 5.48043 5.29289 5.29289C5.48043 5.10536 5.73478 5 6 5H11C11.5523 5 12 4.55228 12 4C12 3.44772 11.5523 3 11 3Z" fill="black"/>
</svg>
