<svg fill="none" height="56" viewBox="0 0 180 56" width="180" xmlns="http://www.w3.org/2000/svg"><path d="m0 0h180v56h-180z" fill="#000"/><g fill="#fff"><path d="m70.112 42 3.048-12.504h.12l3.072 12.504h3.576l4.344-16.8h-3.072l-3 12.816h-.12l-3.168-12.816h-3.312l-3.168 12.816h-.12l-2.976-12.816h-3.12l4.344 16.8zm26.526-6.696c0-3.312-2.184-6.168-5.952-6.168-3.6 0-6 2.352-6 6.552s2.4 6.552 6.048 6.552c3.144 0 4.92-1.728 5.616-3.912h-2.952c-.576.936-1.296 1.488-2.664 1.488-1.896 0-2.952-1.176-3.216-3.24h9c.048-.24.12-.744.12-1.272zm-9.12-.84c.288-1.752 1.392-2.904 3.168-2.904 1.992 0 3.024 1.464 3.216 2.904zm18.245 7.776c3.192 0 5.472-2.28 5.472-6.552s-2.28-6.552-5.472-6.552c-1.896 0-3.048.864-3.672 1.656h-.12v-5.592h-2.7603v16.8h2.3283l.312-1.536h.12c.768.984 1.992 1.776 3.792 1.776zm-.552-2.496c-1.824 0-3.24-1.296-3.24-4.056s1.416-4.056 3.24-4.056c1.848 0 3.264 1.296 3.264 4.056s-1.416 4.056-3.264 4.056zm27.497 2.256-6.144-16.8h-3.6l-6.144 16.8h3.024l1.272-3.528h7.248l1.272 3.528zm-8.04-13.488h.12l2.64 7.344h-5.376zm12.316 18.288v-6.216h.12c.624.792 1.776 1.656 3.672 1.656 3.192 0 5.471-2.28 5.471-6.552s-2.279-6.552-5.471-6.552c-1.8 0-3.024.792-3.792 1.776h-.12l-.312-1.536h-2.328v17.424zm3.24-7.056c-1.824 0-3.24-1.296-3.24-4.056s1.416-4.056 3.24-4.056c1.848 0 3.264 1.296 3.264 4.056s-1.416 4.056-3.264 4.056zm11.22 7.056v-6.216h.12c.624.792 1.776 1.656 3.672 1.656 3.192 0 5.472-2.28 5.472-6.552s-2.28-6.552-5.472-6.552c-1.8 0-3.024.792-3.792 1.776h-.12l-.312-1.536h-2.328v17.424zm3.24-7.056c-1.824 0-3.24-1.296-3.24-4.056s1.416-4.056 3.24-4.056c1.848 0 3.264 1.296 3.264 4.056s-1.416 4.056-3.264 4.056z"/><path d="m66.164 19v-7.284h2.652v-1.116h-6.552v1.116h2.64v7.284zm4.0144 0v-3.636c0-.924.684-1.56 1.656-1.56h.66v-1.08h-.696c-.72 0-1.26.216-1.62.804h-.06l-.144-.804h-.936v6.276zm5.3414 2.4 3.432-8.676h-1.2l-1.848 4.752h-.06l-1.92-4.752h-1.224l2.58 6.276-.96 2.4zm9.5775-2.4v-1.056h-.9c-.408 0-.684-.288-.684-.684v-3.48h1.584v-1.056h-1.584v-1.68h-.984l-.156 1.68h-.984v1.056h.984v3.564c0 .996.66 1.656 1.692 1.656zm2.4848 0v-3.78c0-.864.648-1.572 1.536-1.572.84 0 1.428.564 1.428 1.572v3.78h1.14v-3.864c0-1.62-1.044-2.532-2.34-2.532-.72 0-1.284.252-1.704.864h-.06v-2.868h-1.14v8.4zm11.1635-3.384c0-1.488-.996-3.012-2.892-3.012-1.716 0-2.916 1.152-2.916 3.252s1.2 3.264 2.952 3.264c1.38 0 2.304-.732 2.688-1.848h-1.212c-.324.54-.768.828-1.476.828-1.032 0-1.668-.66-1.788-1.86h4.584c.024-.12.06-.36.06-.624zm-4.632-.336c.144-.984.708-1.656 1.74-1.656 1.104 0 1.656.828 1.752 1.656z"/><path d="m43.3333 16h-18.6666c-1.0609 0-2.0783.4214-2.8285 1.1716-.7501.7501-1.1715 1.7675-1.1715 2.8284v10.6667c0 1.0608.4214 2.0782 1.1715 2.8284.7502.7501 1.7676 1.1716 2.8285 1.1716h8v2.6666h-5.3334c-.3536 0-.6927.1405-.9428.3906-.25.25-.3905.5891-.3905.9428 0 .3536.1405.6927.3905.9428.2501.25.5892.3905.9428.3905h13.3334c.3536 0 .6927-.1405.9428-.3905.25-.2501.3905-.5892.3905-.9428 0-.3537-.1405-.6928-.3905-.9428-.2501-.2501-.5892-.3906-.9428-.3906h-5.3334v-2.6666h8c1.0609 0 2.0783-.4215 2.8285-1.1716.7501-.7502 1.1715-1.7676 1.1715-2.8284v-10.6667c0-1.0609-.4214-2.0783-1.1715-2.8284-.7502-.7502-1.7676-1.1716-2.8285-1.1716zm1.3334 14.6667c0 .3536-.1405.6927-.3906.9428-.25.25-.5892.3905-.9428.3905h-18.6666c-.3537 0-.6928-.1405-.9429-.3905-.25-.2501-.3905-.5892-.3905-.9428v-10.6667c0-.3536.1405-.6928.3905-.9428.2501-.2501.5892-.3905.9429-.3905h18.6666c.3536 0 .6928.1404.9428.3905.2501.25.3906.5892.3906.9428z"/></g></svg>
